HIERARCHY
ROOT Hips
{
  OFFSET 0.382225 96.6805 0.598322
  CHANNELS 6 Xposition Yposition Zposition Zrotation Xrotation Yrotation
  JOINT Spine
  {
    OFFSET 10.8089 -0.851416 0
    CHANNELS 3 Zrotation Xrotation Yrotation
    JOINT Spine1
    {
      OFFSET 18.8753 3.80116 0
      CHANNELS 3 Zrotation Xrotation Yrotation
      JOINT Spine2
      {
        OFFSET 13.4073 0.420477 0
        CHANNELS 3 Zrotation Xrotation Yrotation
        JOINT LeftShoulder
        {
          OFFSET 11.8837 -2.73209 -3.78198
          CHANNELS 3 Zrotation Xrotation Yrotation
          JOINT LeftArm
          {
            OFFSET 15.7849 0 -2.35849e-005
            CHANNELS 3 Zrotation Xrotation Yrotation
            JOINT LeftForeArm
            {
              OFFSET 30.3399 0 0
              CHANNELS 3 Zrotation Xrotation Yrotation
              JOINT LeftHand
              {
                OFFSET 26.9751 0 2.45913e-005
                CHANNELS 3 Zrotation Xrotation Yrotation
                End Site
                {
                  OFFSET 8 0 0
                }
              }
            }
          }
        }
        JOINT RightShoulder
        {
          OFFSET 11.8838 -2.7321 3.782
          CHANNELS 3 Zrotation Xrotation Yrotation
          JOINT RightArm
          {
            OFFSET -15.7848 0 -1.07056e-005
            CHANNELS 3 Zrotation Xrotation Yrotation
            JOINT RightForeArm
            {
              OFFSET -30.34 1.02096e-005 -2.53607e-005
              CHANNELS 3 Zrotation Xrotation Yrotation
              JOINT RightHand
              {
                OFFSET -26.9752 2.07668e-005 0
                CHANNELS 3 Zrotation Xrotation Yrotation
                End Site
                {
                  OFFSET -8 0 0
                }
              }
            }
          }
        }
        JOINT Neck
        {
          OFFSET 16.5588 -0.355318 0
          CHANNELS 3 Zrotation Xrotation Yrotation
          JOINT Head
          {
            OFFSET 9.28361 0.364157 0
            CHANNELS 3 Zrotation Xrotation Yrotation
            End Site
            {
              OFFSET 0 0 0
            }
          }
        }
      }
    }
  }
  JOINT LeftUpLeg
  {
    OFFSET -1.44883 -0.531424 -9.00581
    CHANNELS 3 Zrotation Xrotation Yrotation
    JOINT LeftLeg
    {
      OFFSET -42.572 0.0788889 -0.011964
      CHANNELS 3 Zrotation Xrotation Yrotation
      JOINT LeftFoot
      {
        OFFSET -40.1967 0 0
        CHANNELS 3 Zrotation Xrotation Yrotation
				JOINT LeftToe
        {
          OFFSET -10.4538 -16.5779 0.0801563
          CHANNELS 3 Zrotation Xrotation Yrotation
          End Site
          {
            OFFSET -1.0 -1.0 0.0
          }
        }
      }
    }
  }
  JOINT RightUpLeg
  {
    OFFSET -1.44865 -0.531427 9.0058
    CHANNELS 3 Zrotation Xrotation Yrotation
    JOINT RightLeg
    {
      OFFSET 42.5723 -3.24776e-005 0
      CHANNELS 3 Zrotation Xrotation Yrotation
      JOINT RightFoot
      {
        OFFSET 40.1968 0 -1.14003e-005
        CHANNELS 3 Zrotation Xrotation Yrotation
				JOINT RightToe
        {
          OFFSET 10.4538 16.5778 -0.0801573
          CHANNELS 3 Zrotation Xrotation Yrotation
          End Site
          {
            OFFSET -1.0 -1.0 0.0
          }
        }
      }
    }
  }
}
MOTION
Frames:	8
Frame Time:	0.0333333
-84.7013 98.8677 54.1071 -45.6628 -60.2282 -63.9556 -24.6995 9.46124 -1.62623 29.3321 -0.931872 -1.35644 2.7794 1.93418e-006 1.65929e-005 6.56702 16.769 47.5199 36.7165 53.5255 -20.1335 -75.813 8.30612 -19.5874 66.9951 -77.5024 81.9033 170.012 17.9455 108.751 -42.4073 38.0899 67.3856 -9.00238 -7.13013 -0.44725 71.8264 -68.9512 78.6057 -23.508 4.63459e-006 -5.90926e-006 -43.1508 -43.9996 -73.2641 98.249 -8.50621 -55.6599 -42.5994 -3.92843 -1.40737 9.91824 -18.764 -8.96489 -90 0 0 -125.794 14.2364 -67.0606 -11.6811 -5.62127 1.18329 10.9832 -18.5605 -8.57624 -90 0 0
-88.8292 100.083 52.6923 -44.5377 -61.2242 -61.6787 -25.4793 13.1826 -1.54603 27.9233 -0.831068 -1.24215 2.7794 1.93418e-006 1.65929e-005 7.74278 19.6145 48.9236 22.9678 47.2599 -21.2703 -72.6163 6.61999 -19.1709 47.6267 -64.1732 60.0657 170.213 18.365 107.61 -36.252 38.3172 66.1412 -11.0998 -7.27978 -0.566808 90.4558 -62.5465 95.6483 -23.508 4.63459e-006 -5.90926e-006 -27.2218 -50.103 -54.707 96.246 -9.59203 -56.0519 -36.8738 -4.30027 -1.02283 9.11944 -18.479 -10.3916 -90 0 0 -132.115 7.62319 -61.7204 -24.1354 -5.00848 -0.724988 11.6997 -15.1517 -8.18687 -90 0 0
-91.9299 101.796 51.798 -41.1218 -61.3309 -60.1336 -26.2987 10.8949 -1.30421 28.0917 -0.842959 -1.25595 2.7794 1.93418e-006 1.65929e-005 4.50898 15.7061 51.6808 11.6371 46.3495 -10.4413 -75.8364 8.31857 -19.5901 39.7714 -68.5299 51.7227 169.259 18.9357 109.055 -40.7746 40.7573 65.7745 -7.93884 -7.0523 -0.390351 64.9059 -55.6232 66.1265 -23.508 4.63459e-006 -5.90926e-006 -25.5751 -47.3937 -45.7466 96.0198 -4.03922 -56.5523 -29.1932 -4.81875 -1.0189 12.0668 -22.3758 -7.67337 -90 0 0 -134.348 -1.00929 -58.5395 -41.1569 -3.42819 -2.74123 11.0294 4.02281 -16.4125 -90 0 0
-94.6485 102.952 51.348 -37.0363 -62.8056 -57.8059 -27.5811 7.7987 -3.47239 27.1281 -0.775424 -1.17658 2.7794 1.93418e-006 1.65929e-005 2.12155 13.3314 55.8458 -8.6706 48.9953 8.96079 -78.758 9.87652 -19.8876 61.7675 -75.2953 74.4951 169.195 19.3635 108.574 -43.9707 43.0291 64.2831 -4.62468 -6.80697 -0.197709 51.5896 -51.2307 53.1943 -23.508 4.63459e-006 -5.90926e-006 -31.2651 -45.2598 -50.0026 101.128 4.07012 -60.2289 -22.2248 -5.4674 -0.29055 13.5918 -26.3395 -0.728021 -90 0 0 -134.369 -8.95148 -54.5411 -61.1434 -0.826619 -5.00855 10.5972 8.84185 -17.717 -90 0 0
-97.2168 103.225 50.9242 -34.2982 -66.2827 -56.7271 -29.8571 5.82603 -7.5625 24.5303 -0.600092 -0.957077 2.7794 1.93418e-006 1.65929e-005 0.0664453 12.1942 63.6193 -34.0344 44.5604 36.1716 -80.4714 10.7949 -20.0248 57.3364 -73.6397 69.8566 169.423 20.0433 107.098 -40.4071 43.6391 55.5866 -1.67338 -6.57482 -0.0746506 60.5603 -51.2103 60.6307 -23.508 4.63459e-006 -5.90926e-006 -34.3577 -46.676 -56.2514 101.67 7.79899 -63.3397 -18.3636 -5.6461 0.225584 12.2799 -28.4942 0.477124 -90 0 0 -128.764 -15.4046 -49.5004 -82.4318 2.4304 -6.19087 10.3992 5.46957 -12.0373 -90 0 0
-99.5368 103.222 50.4255 -38.1483 -69.9003 -62.8423 -32.4238 3.16042 -10.4133 23.3453 -0.523474 -0.854391 2.7794 1.93418e-006 1.65929e-005 -2.01175 10.4275 75.9411 -50.0544 37.528 56.87 -79.6001 10.3276 -19.9585 70.0057 -78.0044 84.6532 170.416 19.7025 105.253 -35.3945 43.1483 44.4056 -1.7172 -6.57828 -0.076954 60.8695 -49.1238 60.0327 -23.508 4.63459e-006 -5.90926e-006 -35.4577 -45.99 -58.9349 98.0256 8.81524 -66.0148 -16.3287 -5.56124 0.535125 9.00034 -27.9884 -4.03733 -90 0 0 -115.283 -19.1587 -40.6537 -103.031 5.84059 -6.06415 10.5397 4.58538 -10.9058 -90 0 0
-101.893 103.158 50.005 -45.4959 -72.1089 -73.5981 -34.6861 -2.09964 -11.8001 22.4546 -0.467313 -0.7762 2.7794 1.93418e-006 1.65929e-005 -2.7789 7.68076 85.8825 -56.2534 27.4486 73.4623 -78.872 9.93754 -19.8976 85.9833 -83.089 98.4611 172.189 19.4883 101.261 -37.1554 42.4216 38.5331 -8.55088 -7.09745 -0.422305 53.4078 -49.4553 53.8477 -23.508 4.63459e-006 -5.90926e-006 -33.0332 -44.6416 -57.8506 93.9294 10.4004 -68.532 -14.8093 -5.56354 0.774567 6.54553 -25.7908 -5.90937 -90 0 0 -98.0728 -15.8029 -29.3548 -121.394 8.51238 -4.93414 10.0501 -0.177528 -6.52643 -90 0 0
-104.425 103.095 49.6085 -51.4746 -71.9383 -84.5759 -34.5544 -9.40205 -11.6465 21.965 -0.436954 -0.73283 2.7794 1.93418e-006 1.65929e-005 -2.92601 10.0816 86.8647 -65.3146 13.1256 85.211 -80.5959 10.8618 -20.0337 67.5216 -81.7699 79.2171 174.631 18.933 95.7244 -36.7861 42.1547 35.3851 -26.4867 -8.22791 -1.59731 46.3166 -53.4555 51.1226 -23.508 4.63459e-006 -5.90926e-006 -27.243 -43.5026 -51.5257 92.5252 15.4749 -70.3877 -11.2714 -5.64994 1.24188 4.49794 -25.3456 -6.18796 -90 0 0 -82.9457 0.242149 -20.2603 -130.106 9.25283 -4.04183 8.40864 -1.2991 -1.6858 -90 0 0
